<svg version="1.1" xmlns="http://www.w3.org/2000/svg" xmlns:xlink="http://www.w3.org/1999/xlink" x="0px" y="0px" width="160" height="78" viewBox="0 0 160 78" style="enable-background:new 0 0 160 78;" xml:space="preserve">
<style type="text/css">
	.logo0{fill:#0089C7;}
	.logo1{fill:#B1B1B0;}
	.logo2{fill:#D9D9D9;}
</style>
<g id="Ebene_1">
	<g>
		<polygon class="logo0" points="0,0.0016123 7.2159915,0.0016123 7.2159915,50.1656456 0,50.1656456 0,0.0016123 		"/>
		<polygon class="logo0" points="83.9255371,0 91.1416931,0 91.1416931,50.1637039 83.9255371,50.1637039 83.9255371,0 		"/>
		<path class="logo0" d="M9.925827,20.9254284c-0.9543295,1.1939278-1.4294777,2.2471218-1.4294777,3.1539192
			c0,1.3846455,0.9999685,3.320715,3.0007582,5.8040295l16.3634148,20.2822685h9.5033703L16.3403473,24.3481503L36.2586708,0
			h-9.3284645L9.925827,20.9254284L9.925827,20.9254284z"/>
		<path class="logo0" d="M94.0874939,20.9254284c-0.9541702,1.1939278-1.4296417,2.2471218-1.4296417,3.1539192
			c0,1.3846455,1.0002975,3.320715,3.000267,5.8040295l16.363739,20.2822685h9.5025787l-21.0211487-25.8174953L120.4196777,0
			h-9.3269806L94.0874939,20.9254284L94.0874939,20.9254284z"/>
		<path class="logo1" d="M115.557869,20.9254284c-0.9541702,1.1939278-1.4296722,2.2471218-1.4296722,3.1539192
			c0,1.3846455,1.000946,3.320715,3.0009155,5.8040295l16.3637466,20.2822685h9.5025787l-21.0217972-25.8174953L141.8919678,0
			h-9.3289337L115.557869,20.9254284L115.557869,20.9254284z"/>
		<path class="logo2" d="M132.5502319,20.9254284c-0.9548187,1.1939278-1.4302826,2.2471218-1.4302826,3.1539192
			c0,1.3846455,1.0022278,3.320715,3.0009155,5.8040295l16.3656464,20.2822685h9.5025787l-21.0237122-25.8174953L158.8837128,0
			h-9.3289337L132.5502319,20.9254284L132.5502319,20.9254284z"/>
		<path class="logo0" d="M48.2403755,49.2324562c1.5248184,0.621479,3.001545,0.9331894,4.4294472,0.9331894h12.4336548
			c1.3810806,0,2.8113785-0.3117104,4.2881317-0.9331894c4.8578415-2.0514336,7.2876205-5.8509178,7.2876205-11.3933868V0
			h-7.2171402v37.339077c0,2.0038528-0.4187469,3.436409-1.2546997,4.2975693
			c-0.8364182,0.8605652-2.2353134,1.2905045-4.1932907,1.2905045h-10.252346c-3.6807976,0-5.5213776-2.0070801-5.5213776-6.0193291
			V0h-7.2166481v37.8390694C41.0237274,43.4760056,43.4278755,47.274868,48.2403755,49.2324562"/>
	</g>
</g>
<g id="Zusatz">
	<g>
		<path class="logo0" d="M97.482193,63.8540268l1.4341278,6.238472l0.3124008,1.7361908l0.3133545-1.7005234l1.2268295-6.2741394
			h2.3950348l1.2909088,6.2375031l0.3300171,1.7371597l0.3357849-1.6693573l1.4475937-6.3053055h2.3114014l-3.0560226,10.8940277
			h-2.1736298l-1.3114166-6.3708649l-0.3832092-2.1063766l-0.3832016,2.1063766l-1.3117447,6.3708649h-2.1079407
			l-3.0800629-10.8940277H97.482193z"/>
		<path class="logo0" d="M112.1067734,65.7312851h-2.1297379v-1.9437752h2.1297379V65.7312851z M109.9770355,66.6920929h2.1297379
			v8.0559616h-2.1297379V66.6920929z"/>
		<path class="logo0" d="M113.2265854,76.2927246c0.1179123,0.009964,0.2015381,0.0160675,0.2505569,0.0183182
			c0.0490265,0.0025711,0.0932388,0.0038605,0.1326523,0.0038605c0.206337,0,0.3623734-0.0504532,0.4681091-0.1516724
			c0.1054153-0.1009064,0.1582794-0.2966003,0.1582794-0.58741v-8.8467789h2.1002579v8.8837357
			c0,0.8129807-0.1595612,1.4142075-0.4790039,1.8033524C115.5379944,77.8052673,114.9115982,78,113.9782562,78
			c-0.0637589,0-0.1585999-0.0025711-0.2835541-0.0073929c-0.1256027-0.0048218-0.2813187-0.0099564-0.4681168-0.0147781V76.2927246
			z M116.336441,65.7312851h-2.1002579v-1.9437752h2.1002579V65.7312851z"/>
		<path class="logo0" d="M122.5933151,66.8212662c0.3784027,0.214653,0.6853485,0.5112534,0.9211655,0.8907547v-3.8432121h2.1297379
			v10.8792458h-2.0413055v-1.1160126c-0.2995758,0.477829-0.6411285,0.8251953-1.0243301,1.042099
			c-0.3832092,0.2169037-0.8596497,0.3251953-1.4296494,0.3251953c-0.9384689,0-1.727951-0.3804626-2.3694-1.1420364
			c-0.6408081-0.7609253-0.9615402-1.7378006-0.9615402-2.9302902c0-1.3746796,0.3156052-2.4563065,0.9468002-3.2445526
			c0.6315231-0.7882462,1.4751434-1.1825256,2.5315247-1.1825256C121.782692,66.4999313,122.21492,66.607254,122.5933151,66.8212662
			z M123.109169,72.560379c0.3095093-0.4434509,0.4642715-1.0173569,0.4642715-1.7220535
			c0-0.9855499-0.2479935-1.6899185-0.7443008-2.1137695c-0.3047104-0.2561035-0.6584396-0.3843231-1.0611877-0.3843231
			c-0.614212,0-1.0647049,0.2329712-1.3524323,0.6982727c-0.2870789,0.4659424-0.4309387,1.0433884-0.4309387,1.7332993
			c0,0.7439041,0.1461029,1.3390198,0.4386292,1.7847137c0.2922134,0.446022,0.7356491,0.6690292,1.3300018,0.6690292
			S122.7996597,73.0038223,123.109169,72.560379z"/>
		<path class="logo0" d="M132.7866974,66.8553314c0.560379,0.2516098,1.0233765,0.6487808,1.3883057,1.1918411
			c0.3287354,0.4784775,0.5421295,1.0337524,0.6398621,1.665184c0.0567017,0.3701782,0.0794525,0.9032822,0.0691986,1.5989761
			h-5.8502808c0.0326843,0.8081665,0.3127136,1.3746872,0.8401031,1.6998825
			c0.3207245,0.2021255,0.7064972,0.3030243,1.1579437,0.3030243c0.478363,0,0.8670197-0.1230698,1.166275-0.3695374
			c0.1627655-0.1330338,0.3069458-0.3178101,0.4322357-0.5543137h2.1441498
			c-0.0563965,0.477829-0.315918,0.9633713-0.778595,1.455986c-0.7196198,0.7834244-1.7269745,1.1751404-3.022049,1.1751404
			c-1.0688782,0-2.012146-0.3303375-2.8291931-0.991333c-0.8173447-0.660675-1.2258606-1.7358704-1.2258606-3.2249527
			c0-1.3955765,0.368782-2.4659576,1.1066742-3.210495c0.7375793-0.744545,1.6949463-1.1169739,2.8724365-1.1169739
			C131.5967102,66.4777603,132.2266235,66.6037216,132.7866974,66.8553314z M129.6448059,68.6747513
			c-0.2967072,0.3068771-0.4831848,0.7226868-0.559433,1.2471161h3.6183319
			c-0.0381317-0.5591278-0.2245941-0.9832993-0.5594177-1.2728271c-0.3348236-0.2895203-0.7500763-0.4344482-1.2457428-0.4344482
			C130.3592987,68.214592,129.9414978,68.3681946,129.6448059,68.6747513z"/>
		<path class="logo0" d="M140.8951874,66.6920929h2.2550201l-2.9009552,8.0559616h-2.214325l-2.8807526-8.0559616h2.3581696
			l1.6731567,5.9421921L140.8951874,66.6920929z"/>
		<path class="logo0" d="M149.5740051,66.8553314c0.5603943,0.2516098,1.0233765,0.6487808,1.3883209,1.1918411
			c0.3287354,0.4784775,0.5421295,1.0337524,0.6398468,1.665184c0.0567169,0.3701782,0.0794678,0.9032822,0.0692139,1.5989761
			h-5.8502808c0.0326843,0.8081665,0.3127136,1.3746872,0.8401031,1.6998825
			c0.3207245,0.2021255,0.7064972,0.3030243,1.1579437,0.3030243c0.478363,0,0.8670197-0.1230698,1.166275-0.3695374
			c0.1627655-0.1330338,0.3069458-0.3178101,0.4322205-0.5543137h2.1441498
			c-0.0563812,0.477829-0.315918,0.9633713-0.7785797,1.455986c-0.719635,0.7834244-1.7269897,1.1751404-3.0220642,1.1751404
			c-1.0688629,0-2.012146-0.3303375-2.8291779-0.991333c-0.8173523-0.660675-1.2258759-1.7358704-1.2258759-3.2249527
			c0-1.3955765,0.3687897-2.4659576,1.1066895-3.210495c0.7375641-0.744545,1.6949463-1.1169739,2.8724365-1.1169739
			C148.3840179,66.4777603,149.0139465,66.6037216,149.5740051,66.8553314z M146.4321136,68.6747513
			c-0.2966919,0.3068771-0.4831696,0.7226868-0.559433,1.2471161h3.6183472
			c-0.0381317-0.5591278-0.2246094-0.9832993-0.559433-1.2728271c-0.3348236-0.2895203-0.750061-0.4344482-1.2457275-0.4344482
			C147.1466217,68.214592,146.7288055,68.3681946,146.4321136,68.6747513z"/>
		<path class="logo0" d="M159.2111664,67.1541748C159.7369537,67.5899124,160,68.3132477,160,69.3232117v5.4248428h-2.1518402
			v-4.9000931c0-0.423851-0.056076-0.7490463-0.1682129-0.9755859c-0.2050629-0.413887-0.5950012-0.6208267-1.1704407-0.6208267
			c-0.7071381,0-1.1925507,0.3030243-1.4559174,0.9090652c-0.1365051,0.3203735-0.2047424,0.7291183-0.2047424,1.2268753v4.3605652
			h-2.1002655V66.706871h2.0339355v1.1751328c0.2688293-0.4138794,0.5235443-0.7120819,0.7632141-0.8942795
			c0.4302979-0.3251953,0.9759521-0.487793,1.6363068-0.487793
			C158.0090027,66.4999313,158.6850586,66.7177963,159.2111664,67.1541748z"/>
	</g>
</g>
</svg>