<?xml version="1.0" encoding="utf-8"?>
<!-- Generator: Adobe Illustrator 22.0.1, SVG Export Plug-In . SVG Version: 6.00 Build 0)  -->
<svg version="1.1" id="Layer_1" xmlns="http://www.w3.org/2000/svg" xmlns:xlink="http://www.w3.org/1999/xlink" x="0px" y="0px"
	 viewBox="0 0 64 64" style="enable-background:new 0 0 64 64;" xml:space="preserve">
<style type="text/css">
	.st0{fill:#FFFFFF;}
</style>
<path class="st0" d="M62.6,54C54,62.6,54,62.6,54,62.6S52.6,64,51.2,64c-1.4,0-2.8-1.4-4.3-1.4C31.3,45.5,31.3,45.5,31.3,45.5
	C15.6,62.6,15.6,62.6,15.6,62.6c-1.4,0-2.8,1.4-4.3,1.4c-1.4,0-1.4-1.4-2.8-1.4C1.4,54,1.4,54,1.4,54C0,54,0,52.6,0,51.2
	c0-1.4,0-2.8,1.4-4.3C17,31.3,17,31.3,17,31.3C1.4,15.6,1.4,15.6,1.4,15.6C0,14.2,0,12.8,0,11.4s0-2.9,1.4-2.9
	c7.1-7.1,7.1-7.1,7.1-7.1C10,0,10,0,11.4,0s2.8,0,4.3,1.4C31.3,17,31.3,17,31.3,17C46.9,1.4,46.9,1.4,46.9,1.4C48.4,0,49.8,0,51.2,0
	C52.6,0,54,0,54,1.4c8.5,7.1,8.5,7.1,8.5,7.1S64,10,64,11.4s-1.4,2.8-1.4,4.3C45.5,31.3,45.5,31.3,45.5,31.3
	c17.1,15.6,17.1,15.6,17.1,15.6c0,1.4,1.4,2.8,1.4,4.3C64,52.6,62.6,54,62.6,54z"/>
</svg>
