<?xml version="1.0" encoding="utf-8"?>
<!-- Generator: Adobe Illustrator 22.0.1, SVG Export Plug-In . SVG Version: 6.00 Build 0)  -->
<svg version="1.1" id="Layer_1" xmlns="http://www.w3.org/2000/svg" xmlns:xlink="http://www.w3.org/1999/xlink" x="0px" y="0px"
	 viewBox="0 0 153.2 152.9" style="enable-background:new 0 0 153.2 152.9;" xml:space="preserve">
<style type="text/css">
	.st0{clip-path:url(#SVGID_2_);}
	.st1{clip-path:url(#SVGID_4_);}
	.st2{clip-path:url(#SVGID_8_);}
	.st3{clip-path:url(#SVGID_10_);}
	.st4{clip-path:url(#SVGID_14_);}
	.st5{clip-path:url(#SVGID_16_);}
	.st6{clip-path:url(#SVGID_20_);}
	.st7{clip-path:url(#SVGID_22_);}
	.st8{clip-path:url(#SVGID_26_);}
	.st9{clip-path:url(#SVGID_28_);}
	.st10{clip-path:url(#SVGID_32_);}
	.st11{clip-path:url(#SVGID_34_);}
</style>
<g>
	<defs>
		<path id="SVGID_1_" d="M6.4,54c12.9-25.1,42-37.2,68.9-28.6c26.8,8.6,43.6,35.4,39.6,63.4c16.4-31.9,0.3-70.9-33.8-81.8
			C75.3,5,69.4,4.1,63.6,4.1C35.7,4.1,10.6,24.6,6.4,54"/>
	</defs>
	<clipPath id="SVGID_2_">
		<use xlink:href="#SVGID_1_"  style="overflow:visible;"/>
	</clipPath>
	<g class="st0">
		<g>
			<defs>
				<polygon id="SVGID_3_" points="-27.9,21.9 32.7,139.8 165.7,70.9 105,-47 				"/>
			</defs>
			<clipPath id="SVGID_4_">
				<use xlink:href="#SVGID_3_"  style="overflow:visible;"/>
			</clipPath>
			<g class="st1">
				<defs>
					<polygon id="SVGID_5_" points="12.8,219.1 241.5,100.5 124.9,-126.2 -103.8,-7.6 					"/>
				</defs>
				<clipPath id="SVGID_6_">
					<use xlink:href="#SVGID_5_"  style="overflow:visible;"/>
				</clipPath>
				<g transform="matrix(1 0 0 1 0 7.629395e-06)" style="clip-path:url(#SVGID_6_);">
					
						<image style="overflow:visible;" width="720" height="721" xlink:href="BFFA4D65BB0B8164.jpg"  transform="matrix(0.48 0 0 0.48 -103.9765 -126.6456)">
					</image>
				</g>
			</g>
		</g>
	</g>
</g>
<g>
	<defs>
		<path id="SVGID_7_" d="M82.4,0C75.3,0,68,1.4,60.9,4.2C89,2.9,114,22.1,120,49.8c6,27.6-8.7,55.6-34.8,66.1
			c35.7-1.7,61.3-35.2,53.7-70.3C132.9,18.1,108.6,0,82.4,0C82.4,0,82.5,0,82.4,0"/>
	</defs>
	<clipPath id="SVGID_8_">
		<use xlink:href="#SVGID_7_"  style="overflow:visible;"/>
	</clipPath>
	<g class="st2">
		<g>
			<defs>
				<polygon id="SVGID_9_" points="13.8,24.4 78.9,150.9 193.6,91.5 128.5,-35 				"/>
			</defs>
			<clipPath id="SVGID_10_">
				<use xlink:href="#SVGID_9_"  style="overflow:visible;"/>
			</clipPath>
			<g class="st3">
				<defs>
					<polygon id="SVGID_11_" points="51.7,224.5 269.1,111.8 155.7,-108.6 -61.7,4.1 					"/>
				</defs>
				<clipPath id="SVGID_12_">
					<use xlink:href="#SVGID_11_"  style="overflow:visible;"/>
				</clipPath>
				<g transform="matrix(1 0 0 1 -3.814697e-06 0)" style="clip-path:url(#SVGID_12_);">
					
						<image style="overflow:visible;" width="690" height="695" xlink:href="BFFA4D65BB0B8165.jpg"  transform="matrix(0.48 0 0 0.48 -61.7365 -108.8856)">
					</image>
				</g>
			</g>
		</g>
	</g>
</g>
<g>
	<defs>
		<path id="SVGID_13_" d="M121.3,100.9c-20.8,19-52.3,20.2-74.5,2.8c19.3,30.2,61,35.7,87.5,11.6c26.4-24.2,24.9-66.4-3.3-88.5
			C146.3,50.5,142.2,81.8,121.3,100.9"/>
	</defs>
	<clipPath id="SVGID_14_">
		<use xlink:href="#SVGID_13_"  style="overflow:visible;"/>
	</clipPath>
	<g class="st4">
		<g>
			<defs>
				<polygon id="SVGID_15_" points="1.1,50.4 70.8,186 206.5,115.6 136.8,-19.9 				"/>
			</defs>
			<clipPath id="SVGID_16_">
				<use xlink:href="#SVGID_15_"  style="overflow:visible;"/>
			</clipPath>
			<g class="st5">
				<defs>
					<polygon id="SVGID_17_" points="44.3,270 290.1,142.6 163.2,-104 -82.5,23.4 					"/>
				</defs>
				<clipPath id="SVGID_18_">
					<use xlink:href="#SVGID_17_"  style="overflow:visible;"/>
				</clipPath>
				<g style="clip-path:url(#SVGID_18_);">
					
						<image style="overflow:visible;" width="778" height="780" xlink:href="BFFA4D65BB0B816A.jpg"  transform="matrix(0.48 0 0 0.48 -82.8565 -104.0856)">
					</image>
				</g>
			</g>
		</g>
	</g>
</g>
<g>
	<defs>
		<path id="SVGID_19_" d="M72,146c34.1,10.9,69.7-11.6,74.7-47.1c-12.9,25.1-42,37.2-68.9,28.6C51.1,119,34.3,92.2,38.3,64.2
			C21.9,96.1,38,135.1,72,146"/>
	</defs>
	<clipPath id="SVGID_20_">
		<use xlink:href="#SVGID_19_"  style="overflow:visible;"/>
	</clipPath>
	<g class="st6">
		<g>
			<defs>
				<polygon id="SVGID_21_" points="-15.8,83.7 48.2,208 184.4,137.4 120.5,13.1 				"/>
			</defs>
			<clipPath id="SVGID_22_">
				<use xlink:href="#SVGID_21_"  style="overflow:visible;"/>
			</clipPath>
			<g class="st7">
				<defs>
					<polygon id="SVGID_23_" points="26.4,290 263.6,167 142.3,-68.9 -95,54.1 					"/>
				</defs>
				<clipPath id="SVGID_24_">
					<use xlink:href="#SVGID_23_"  style="overflow:visible;"/>
				</clipPath>
				<g style="clip-path:url(#SVGID_24_);">
					
						<image style="overflow:visible;" width="748" height="748" xlink:href="BFFA4D65BB0B816B.jpg"  transform="matrix(0.48 0 0 0.48 -95.3365 -69.0456)">
					</image>
				</g>
			</g>
		</g>
	</g>
</g>
<g>
	<defs>
		<path id="SVGID_25_" d="M14.3,107.3c7.6,35.1,44.8,54.8,78,41.4c-28.1,1.3-53.1-17.9-59.1-45.5C27.2,75.5,41.9,47.6,68,37
			C32.3,38.7,6.7,72.2,14.3,107.3"/>
	</defs>
	<clipPath id="SVGID_26_">
		<use xlink:href="#SVGID_25_"  style="overflow:visible;"/>
	</clipPath>
	<g class="st8">
		<g>
			<defs>
				<polygon id="SVGID_27_" points="-44.1,63.3 24.7,197.1 143.1,135.7 74.3,2 				"/>
			</defs>
			<clipPath id="SVGID_28_">
				<use xlink:href="#SVGID_27_"  style="overflow:visible;"/>
			</clipPath>
			<g class="st9">
				<defs>
					<polygon id="SVGID_29_" points="-4.7,273.8 222.4,156 103.7,-74.7 -123.4,43.1 					"/>
				</defs>
				<clipPath id="SVGID_30_">
					<use xlink:href="#SVGID_29_"  style="overflow:visible;"/>
				</clipPath>
				<g transform="matrix(1 0 0 1 -7.629395e-06 0)" style="clip-path:url(#SVGID_30_);">
					
						<image style="overflow:visible;" width="721" height="727" xlink:href="BFFA4D65BB0B816C.jpg"  transform="matrix(0.48 0 0 0.48 -123.6565 -74.8056)">
					</image>
				</g>
			</g>
		</g>
	</g>
</g>
<g>
	<defs>
		<path id="SVGID_31_" d="M57.7,22.6c-13.8,0-27.7,4.9-38.8,15.1C-7.6,61.9-6,104.1,22.1,126.2C6.9,102.4,11,71.1,31.9,52
			c20.8-19,52.3-20.2,74.5-2.8C95.2,31.8,76.5,22.6,57.7,22.6C57.7,22.6,57.7,22.6,57.7,22.6"/>
	</defs>
	<clipPath id="SVGID_32_">
		<use xlink:href="#SVGID_31_"  style="overflow:visible;"/>
	</clipPath>
	<g class="st10">
		<g>
			<defs>
				<polygon id="SVGID_33_" points="-49.6,44.4 16.4,172.8 148.4,104.4 82.4,-24 				"/>
			</defs>
			<clipPath id="SVGID_34_">
				<use xlink:href="#SVGID_33_"  style="overflow:visible;"/>
			</clipPath>
			<g class="st11">
				<defs>
					<polygon id="SVGID_35_" points="-7.9,253.9 228.4,131.4 106.7,-105.1 -129.6,17.4 					"/>
				</defs>
				<clipPath id="SVGID_36_">
					<use xlink:href="#SVGID_35_"  style="overflow:visible;"/>
				</clipPath>
				<g style="clip-path:url(#SVGID_36_);">
					
						<image style="overflow:visible;" width="747" height="749" xlink:href="BFFA4D65BB0B816F.jpg"  transform="matrix(0.48 0 0 0.48 -129.8965 -105.5256)">
					</image>
				</g>
			</g>
		</g>
	</g>
</g>
</svg>
