<?xml version="1.0" encoding="utf-8"?>
<!-- Generator: Adobe Illustrator 22.0.1, SVG Export Plug-In . SVG Version: 6.00 Build 0)  -->
<svg version="1.1" id="Layer_1" xmlns="http://www.w3.org/2000/svg" xmlns:xlink="http://www.w3.org/1999/xlink" x="0px" y="0px"
	 viewBox="0 0 64 64" style="enable-background:new 0 0 64 64;" xml:space="preserve">
<style type="text/css">
	.st0{fill-rule:evenodd;clip-rule:evenodd;}
</style>
<path class="st0" d="M63.9,51.8c0,2.7-1.8,5.4-5.3,5.4c-52.3,0-52.3,0-52.3,0c-3.5,0-6.2-2.7-6.2-5.4c0-28.8,0-28.8,0-28.8
	c1.8,0.9,2.7,1.8,4.4,2.7c5.3,4.5,11.5,8.1,16.9,12.6c3.5,2.7,7.1,5.4,10.6,5.4l0,0c0.9,0,0.9,0,0.9,0c3.5,0,7.1-2.7,9.8-5.4
	c6.2-4.5,12.4-8.1,17.7-12.6c1.8-0.9,2.7-1.8,3.5-2.7V51.8z M58.6,22.1c-6.2,3.6-11.5,8.1-16.9,11.7c-2.7,1.8-6.2,5.4-8.9,5.4
	c-0.9,0-0.9,0-0.9,0l0,0c-2.7,0-6.2-3.6-8.9-5.4c-5.3-3.6-10.6-8.1-16.9-11.7c-1.8-1.8-6.2-5.4-6.2-9s2.7-6.3,6.2-6.3
	c52.3,0,52.3,0,52.3,0c3.5,0,5.3,1.8,5.3,5.4C63.9,16.7,61.3,20.3,58.6,22.1z"/>
</svg>
