<?xml version="1.0" encoding="utf-8"?>
<!-- Generator: Adobe Illustrator 22.0.1, SVG Export Plug-In . SVG Version: 6.00 Build 0)  -->
<svg version="1.1" id="Layer_1" xmlns="http://www.w3.org/2000/svg" xmlns:xlink="http://www.w3.org/1999/xlink" x="0px" y="0px"
	 viewBox="0 0 64 64" style="enable-background:new 0 0 64 64;" xml:space="preserve">
<style type="text/css">
	.st0{fill-rule:evenodd;clip-rule:evenodd;fill:#95A1AC;}
</style>
<path class="st0" d="M48,11.3L48,11.3c-9.1,0-9.1,0-9.1,0c-1,0-2.2,1.3-2.2,3.8c0,7.5,0,7.5,0,7.5c11.3,0,11.3,0,11.3,0
	c0,10.1,0,10.1,0,10.1c-11.3,0-11.3,0-11.3,0c0,31.3,0,31.3,0,31.3c-10.4,0-10.4,0-10.4,0c0-31.3,0-31.3,0-31.3
	c-10.2,0-10.2,0-10.2,0c0-10.1,0-10.1,0-10.1c10.2,0,10.2,0,10.2,0c0-6.2,0-6.2,0-6.2C26.2,7.6,30.8,0,38.8,0C48,0,48,0,48,0V11.3"
	/>
</svg>
