<?xml version="1.0" encoding="utf-8"?>
<!-- Generator: Adobe Illustrator 22.0.1, SVG Export Plug-In . SVG Version: 6.00 Build 0)  -->
<svg version="1.1" id="Layer_1" xmlns="http://www.w3.org/2000/svg" xmlns:xlink="http://www.w3.org/1999/xlink" x="0px" y="0px"
	 viewBox="0 0 17 16.7" style="enable-background:new 0 0 17 16.7;" xml:space="preserve">
<style type="text/css">
	.st0{fill-rule:evenodd;clip-rule:evenodd;fill:#FFFFFF;}
</style>
<path class="st0" d="M7.2,13.4L7.2,13.4c-0.7,0-1-0.3-0.7-1.7c0.7-2.9,0.7-2.9,0.7-2.9c0-0.3,0-0.7,0-0.7c-0.3,0-1,0.3-1.3,0.7
	C5.6,8.5,5.6,8.5,5.6,8.5c1.3-1.3,2.9-2,3.6-2c0.7,0,0.7,0.7,0.7,1.7c-1,3-1,3-1,3c0,0.6,0,0.6,0,0.6c0.3,0,1,0,1.3-0.6
	c0.3,0.6,0.3,0.6,0.3,0.6C9.1,13.1,7.8,13.4,7.2,13.4z M9.1,2.6L9.1,2.6c1,0,1.3,0.7,1.3,1c0,1-0.6,1.6-1.6,1.6c-0.6,0-1-0.7-1-1.3
	C7.8,3.6,8.2,2.6,9.1,2.6z M8.5,0L8.5,0C3.6,0,0,3.6,0,8.5c0,4.6,3.9,8.1,8.5,8.1c4.9,0,8.5-3.9,8.5-8.5S13.1-0.3,8.5,0z"/>
</svg>
