<?xml version="1.0" encoding="utf-8"?>
<!-- Generator: Adobe Illustrator 22.0.1, SVG Export Plug-In . SVG Version: 6.00 Build 0)  -->
<svg version="1.1" id="Layer_1" xmlns="http://www.w3.org/2000/svg" xmlns:xlink="http://www.w3.org/1999/xlink" x="0px" y="0px"
	 viewBox="0 0 64 64" style="enable-background:new 0 0 64 64;" xml:space="preserve">
<style type="text/css">
	.st0{fill-rule:evenodd;clip-rule:evenodd;fill:#95A1AC;}
</style>
<path class="st0" d="M44,31.4L44,31.4c0-6.6-5.3-11.8-11.9-11.8c-6.8,0-12.2,5.2-12.2,11.8c0,6.5,5.4,11.8,12.2,11.8
	C38.7,43.2,44,37.9,44,31.4z M58.7,13.1L58.7,13.1c0,0,0,1.2-1.4,1.2c-5.4,0-5.4,0-5.4,0c-1.2,0-2.6-1.2-2.6-1.2c0-5.3,0-5.3,0-5.3
	c0-1.3,1.4-2.5,2.6-2.5c5.4,0,5.4,0,5.4,0c1.4,0,1.4,1.2,1.4,2.5V13.1z M54.7,0L54.7,0C9.3,0,9.3,0,9.3,0C3.9,0,0,5.3,0,10.4
	c0,10.5,0,10.5,0,10.5c16,0,16,0,16,0c3.9-5.3,9.3-7.8,16.1-7.8c6.6,0,11.9,2.5,16,7.8c16,0,16,0,16,0c0-10.5,0-10.5,0-10.5
	C64,5.3,59.9,0,54.7,0z M52,31.4L52,31.4C52,41.8,42.8,51,32.1,51c-10.7,0-20.2-9.1-20.2-19.6c0-1.5,1.4-1.5,1.4-2.7
	C0,28.7,0,28.7,0,28.7c0,24.8,0,24.8,0,24.8C0,58.8,3.9,64,9.3,64c45.3,0,45.3,0,45.3,0c5.3,0,9.3-5.2,9.3-10.5
	c0-24.8,0-24.8,0-24.8c-13.3,0-13.3,0-13.3,0C50.7,29.9,52,29.9,52,31.4z"/>
</svg>
