<?xml version="1.0" encoding="utf-8"?>
<!-- Generator: Adobe Illustrator 22.0.1, SVG Export Plug-In . SVG Version: 6.00 Build 0)  -->
<svg version="1.1" id="Layer_1" xmlns="http://www.w3.org/2000/svg" xmlns:xlink="http://www.w3.org/1999/xlink" x="0px" y="0px"
	 viewBox="0 0 64 64" style="enable-background:new 0 0 64 64;" xml:space="preserve">
<style type="text/css">
	.st0{fill-rule:evenodd;clip-rule:evenodd;fill:#95A1AC;}
</style>
<g>
	<path class="st0" d="M1.7,64L1.7,64c0-44.5,0-44.5,0-44.5c13.4,0,13.4,0,13.4,0c0,44.5,0,44.5,0,44.5H1.7z M15.1,6.5L15.1,6.5
		c0,4-2.5,6.5-7.2,6.5C4,13,1.7,10.5,1.7,6.5C1.7,2.7,4,0,7.8,0C12.6,0,15.1,2.7,15.1,6.5z"/>
	<path class="st0" d="M21.9,33L21.9,33c0-6.7,0-10.8,0-14.9c10.9,0,10.9,0,10.9,0c1.2,5.5,1.2,5.5,1.2,5.5c1.2-2.7,6.1-6.7,13.6-6.7
		c8.6,0,14.7,6.7,14.7,20.1c0,27.1,0,27.1,0,27.1c-13.6,0-13.6,0-13.6,0c0-25.7,0-25.7,0-25.7c0-5.3-1.1-9.4-6.1-9.4
		c-3.7,0-6.1,2.7-7.3,5.5c0,0,0,1.4,0,2.6c0,27.1,0,27.1,0,27.1c-13.4,0-13.4,0-13.4,0V33"/>
</g>
</svg>
