<?xml version="1.0" encoding="utf-8"?>
<!-- Generator: Adobe Illustrator 22.0.1, SVG Export Plug-In . SVG Version: 6.00 Build 0)  -->
<svg version="1.1" id="Layer_1" xmlns="http://www.w3.org/2000/svg" xmlns:xlink="http://www.w3.org/1999/xlink" x="0px" y="0px"
	 viewBox="0 0 17 16.7" style="enable-background:new 0 0 17 16.7;" xml:space="preserve">
<style type="text/css">
	.st0{fill-rule:evenodd;clip-rule:evenodd;fill:#FFFFFF;}
</style>
<path class="st0" d="M16.5,6.1c0,0.6-0.3,0.8-0.8,0.8c-4.6,0-4.6,0-4.6,0c-0.3,0-0.5-0.3-0.5-0.6c0-0.3,0-0.6,0.3-0.6
	c1.4-1.7,1.4-1.7,1.4-1.7C11.1,3.4,10,2.8,8.6,2.8c-3,0-5.4,2.5-5.4,5.5c0,2.8,2.4,5.2,5.4,5.2c1.6,0,3-0.8,4.1-1.9
	c0-0.3,0-0.3,0.3-0.3c0,0,0,0,0.3,0c1.4,1.7,1.4,1.7,1.4,1.7v0.3c-1.6,1.9-3.8,3-6,3c-4.3,0-8.1-3.6-8.1-8s3.8-8,8.1-8
	c1.9,0,3.8,0.8,5.4,2.2c1.4-1.4,1.4-1.4,1.4-1.4c0-0.3,0.3-0.3,0.5-0.3c0.3,0.3,0.5,0.3,0.5,0.6V6.1z"/>
</svg>
