<?xml version="1.0" encoding="utf-8"?>
<!-- Generator: Adobe Illustrator 22.0.1, SVG Export Plug-In . SVG Version: 6.00 Build 0)  -->
<svg version="1.1" id="Layer_1" xmlns="http://www.w3.org/2000/svg" xmlns:xlink="http://www.w3.org/1999/xlink" x="0px" y="0px"
	 viewBox="0 0 64 64" style="enable-background:new 0 0 64 64;" xml:space="preserve">
<style type="text/css">
	.st0{fill-rule:evenodd;clip-rule:evenodd;fill:#95A1AC;}
</style>
<path class="st0" d="M41.1,21.8c2.3,0,4.3-2,4.3-2v1.7h3.5V5.2h-3.5v12.6c0,0-1.2,1.4-2.3,1.4c-1.2,0-1.2-0.9-1.2-0.9V5.2h-3.5v14.4
	C38.5,19.5,38.8,21.8,41.1,21.8 M29.5,21.8h1.2c2.6,0,4.6-2.1,4.6-4.6V9.8c0-2.5-2.1-4.6-4.6-4.6h-1.2c-2.6,0-4.6,2.1-4.6,4.6v7.5
	C24.9,19.8,27,21.8,29.5,21.8 M28.4,9.5c0-1,0.8-1.7,1.7-1.7c1,0,1.7,0.8,1.7,1.7v8c0,1-0.8,1.7-1.7,1.7c-1,0-1.7-0.8-1.7-1.7V9.5z
	 M16,21.5h4v-8.9L24.6,0h-3.8L18,8.3L15.1,0h-4L16,12.6V21.5z M38.8,40.6c-0.8,0-1.3,0.4-1.7,0.9V53c0.4,0.4,0.9,0.8,1.7,0.8
	c1.7,0,1.7-1.9,1.7-1.9v-9.4C40.5,42.5,40.2,40.6,38.8,40.6 M53.2,25.4c0,0-10.6-0.5-21.2-0.5c-10.6,0-21.2,0.5-21.2,0.5
	c-4.8,0-8.7,3.7-8.7,8.3c0,0-0.9,5.4-0.9,10.7c0,5.4,0.9,10.7,0.9,10.7c0,4.6,3.9,8.3,8.7,8.3c0,0,10.4,0.5,21.2,0.5
	c10.4,0,21.2-0.5,21.2-0.5c4.8,0,8.7-3.7,8.7-8.3c0,0,0.9-5.4,0.9-10.7c0-5.4-0.9-10.7-0.9-10.7C61.9,29.1,58,25.4,53.2,25.4
	 M19.4,34.8h-4.3v21.8h-4V34.8H6.7v-3.6h12.7V34.8z M30.4,56.6h-3.5v-1.7c0,0-2,1.9-4.3,1.9c-2.3,0-2.6-2.2-2.6-2.2V37.5h3.5v16
	c0,0,0,0.8,1.2,0.8c1.2,0,2.3-1.4,2.3-1.4V37.5h3.5V56.6z M44,52.4c0,0,0,4.4-3.2,4.4c-1.9,0-3.1-1-3.8-1.8v1.6h-3.8V31.2h3.8v8.2
	c0.6-0.6,2-1.9,3.8-1.9c2.3,0,3.2,1.9,3.2,4.4V52.4z M57.6,42.2v5.5h-7.2v4.1c0,0,0,1.9,1.7,1.9c1.7,0,1.7-1.9,1.7-1.9v-1.9h3.7v3
	c0,0-0.6,3.9-5.2,3.9c-4.6,0-5.5-3.9-5.5-3.9V42.2c0,0,0-4.7,5.5-4.7C57.9,37.5,57.6,42.2,57.6,42.2 M52.1,40.6
	c-1.7,0-1.7,1.9-1.7,1.9V45h3.5v-2.5C53.8,42.5,53.8,40.6,52.1,40.6"/>
</svg>
